<?xml version="1.0" standalone="no"?>
<!DOCTYPE svg PUBLIC "-//W3C//DTD SVG 20010904//EN"
 "http://www.w3.org/TR/2001/REC-SVG-20010904/DTD/svg10.dtd">
<svg version="1.0" xmlns="http://www.w3.org/2000/svg"
 width="13px" height="13px" viewBox="0 0 512.000000 512.000000"
 preserveAspectRatio="xMidYMid meet">

<g transform="translate(0.000000,512.000000) scale(0.100000,-0.100000)"
fill="#CED0D6" stroke="none">
<path d="M1443 5104 c-18 -9 -42 -31 -52 -48 -14 -22 -48 -192 -120 -595 -56
-310 -101 -583 -101 -606 0 -36 9 -57 53 -122 29 -43 120 -177 202 -298 81
-121 157 -231 169 -244 12 -13 66 -55 121 -94 55 -39 102 -72 104 -74 3 -2 0
-8 -6 -14 -7 -7 -97 3 -304 36 -162 25 -306 48 -321 51 -23 5 -198 188 -541
571 l-38 41 32 418 c35 467 34 474 -27 521 -69 52 -162 32 -207 -45 -26 -44
-95 -950 -76 -996 15 -34 660 -745 693 -763 12 -6 183 -37 381 -68 198 -30
368 -59 379 -63 11 -5 -126 -30 -355 -66 -206 -33 -386 -65 -401 -72 -37 -19
-677 -721 -695 -762 -12 -30 -10 -87 22 -504 39 -520 38 -518 109 -552 72 -34
151 -7 190 65 19 35 19 39 -13 462 l-32 427 277 303 277 304 334 52 c184 29
336 51 338 49 2 -2 -123 -82 -277 -178 -154 -96 -291 -187 -304 -202 -12 -16
-26 -47 -29 -71 -3 -23 -5 -287 -3 -587 l3 -545 113 -380 c116 -391 124 -410
184 -441 81 -42 198 28 198 120 0 16 -47 191 -105 388 l-105 360 0 496 0 497
152 95 c83 52 161 100 173 107 l22 12 -22 -79 c-35 -119 -48 -221 -48 -365 1
-636 429 -1105 899 -985 243 62 447 284 549 596 76 234 77 544 1 789 -8 27
-13 51 -11 53 2 2 85 -47 184 -109 l181 -112 0 -501 0 -500 -106 -363 c-113
-388 -116 -403 -72 -458 24 -31 74 -55 114 -55 40 0 92 29 113 64 10 17 69
203 130 412 l111 382 0 555 c0 369 -4 565 -11 584 -6 15 -20 38 -32 51 -12 13
-149 102 -304 199 -156 97 -282 177 -281 178 2 2 161 -23 355 -54 l352 -56
276 -303 276 -302 -32 -427 c-32 -423 -32 -427 -13 -462 39 -72 118 -99 190
-65 71 34 70 32 109 552 32 419 34 474 22 504 -21 47 -661 746 -700 763 -18 8
-180 37 -362 65 -366 57 -371 58 -357 72 5 5 164 34 353 63 189 30 356 60 371
67 34 17 680 725 697 764 19 46 -50 952 -76 996 -45 77 -138 97 -207 45 -61
-47 -62 -54 -27 -521 l32 -418 -38 -41 c-186 -207 -517 -567 -522 -568 -3 0
-140 -21 -303 -48 -288 -46 -298 -47 -304 -28 -3 11 -2 22 3 26 69 47 172 123
185 137 9 11 109 156 222 323 180 267 206 309 206 343 0 43 -195 1145 -209
1181 -18 46 -80 87 -133 87 -64 0 -138 -70 -138 -130 0 -14 43 -266 96 -561
l96 -536 -176 -259 c-174 -257 -176 -259 -255 -313 l-80 -54 -33 25 c-18 13
-54 37 -80 52 -35 21 -48 35 -53 59 -14 63 -58 140 -117 203 -33 35 -64 64
-68 64 -5 0 -14 -25 -20 -56 -24 -114 -148 -194 -255 -165 -59 16 -101 45
-132 92 -24 36 -28 53 -28 111 0 39 -4 68 -10 68 -26 0 -117 -65 -167 -119
-64 -68 -105 -147 -120 -230 -9 -49 -16 -60 -52 -87 l-41 -31 -92 66 -92 66
-172 254 -172 254 97 543 c63 348 95 555 91 574 -19 87 -120 134 -202 94z
m718 -3304 c11 -13 18 -47 22 -108 15 -231 95 -394 261 -530 60 -49 76 -68 76
-89 0 -35 -36 -73 -71 -73 -36 0 -154 93 -220 173 -64 79 -133 219 -160 322
-26 106 -37 278 -18 301 30 37 80 38 110 4z"/>
</g>
</svg>
